Fly_normalized_Motion_pl07
version=1
nRows=22
nColumns=43
inDegrees=yes
endheader
time		pelvis_tilt		pelvis_list		pelvis_rotation		pelvis_tx		pelvis_ty		pelvis_tz		hip_flexion_r		hip_adduction_r		hip_rotation_r		knee_angle_r		ankle_angle_r		subtalar_angle_r		mtp_angle_r		hip_flexion_l		hip_adduction_l		hip_rotation_l		knee_angle_l		ankle_angle_l		subtalar_angle_l		mtp_angle_l		lumbar_extension		lumbar_bending		lumbar_rotation		neck_flexion		neck_lateral_bending		neck_rotation		arm_flex_r		arm_add_r		arm_rot_r		elbow_flex_r		pro_sup_r		wrist_flex_r		wrist_dev_r		hand_finger_flex_r		arm_flex_l		arm_add_l		arm_rot_l		elbow_flex_l		pro_sup_l		wrist_flex_l		wrist_dev_l		hand_finger_flex_l		
2.760732		2.237516		-7.591867		92.223800		-0.012297		1.504164		0.957889		47.945559		-5.224251		-10.344149		-56.279607		-22.651025		-0.531798		27.643094		42.706178		-9.108840		-8.605039		-57.190227		-18.854919		0.270063		13.240501		-32.096094		1.615738		-0.605380		-5.444820		7.176875		1.078999		15.995691		-31.008588		-1.406339		53.773559		129.908656		8.945969		-4.213287		-36.283004		-19.461296		-52.585434		-12.590120		72.912998		138.857700		-5.324588		-0.396660		-24.293559		
2.764697		2.106863		-7.323179		92.175885		-0.012032		1.496788		0.949306		47.018406		-5.188926		-10.437924		-54.555321		-22.738048		-0.940075		27.411099		41.762463		-9.038184		-9.253765		-55.019552		-18.914455		1.156251		13.465648		-32.206351		1.391905		-0.616500		-5.289109		7.246804		0.933719		13.303778		-31.398357		-2.121590		54.184453		129.889960		8.438835		-4.358121		-36.033810		-23.622601		-52.300980		-14.905922		73.543756		138.548924		-5.516585		-0.555662		-24.333264		
2.768662		2.073883		-7.228446		92.188570		-0.012274		1.488882		0.940645		46.267526		-5.168372		-10.615946		-52.862875		-22.795728		-1.125639		27.252957		41.077269		-8.878148		-9.600397		-52.902163		-19.212297		1.679505		13.541026		-31.907705		1.407441		-0.454462		-6.185676		6.907759		0.707924		10.435407		-31.843074		-2.987547		54.467269		129.578386		7.849104		-4.450868		-36.071113		-26.964760		-51.952170		-16.143551		73.662189		138.398495		-5.845409		-0.608711		-24.444327		
2.772626		1.930658		-7.011653		92.163854		-0.012182		1.480972		0.932073		45.380552		-5.179064		-10.729214		-51.126678		-22.813878		-1.541017		26.960216		40.243302		-8.702862		-10.094084		-50.821448		-19.364466		2.480378		13.726322		-31.862315		1.231959		-0.447425		-6.432173		6.787696		0.612092		7.644062		-32.115641		-3.807040		54.812942		128.887768		7.118796		-4.453854		-35.940883		-30.741288		-51.542385		-17.968187		74.025543		138.074872		-6.238406		-0.811203		-24.497459		
2.776591		1.906301		-6.921987		92.213713		-0.012668		1.472514		0.923468		44.685212		-5.240010		-11.024972		-49.549889		-22.960744		-1.664740		26.808373		39.609251		-8.531166		-10.465144		-48.781968		-19.739454		2.859378		13.740442		-31.502113		1.296591		-0.227995		-7.491888		6.491360		0.473578		4.577292		-32.681096		-4.553054		55.267460		128.418900		6.628001		-4.560045		-36.004823		-33.776067		-51.147881		-18.857199		74.077486		137.945532		-6.587591		-0.872690		-24.588659		
2.780556		1.855415		-6.767173		92.281140		-0.013028		1.463960		0.914978		43.943198		-5.289770		-11.268696		-48.002060		-23.048498		-1.924055		26.622462		38.903458		-8.333192		-10.811028		-46.747507		-20.040412		3.303276		13.770354		-31.290503		1.286083		-0.057973		-8.102810		6.322518		0.279939		1.492517		-32.962449		-5.649898		55.731622		127.659923		5.989867		-4.575852		-36.070344		-36.995824		-50.708725		-20.034808		74.296768		137.742195		-7.025911		-1.003199		-24.680040		
2.784520		1.710227		-6.403713		92.320728		-0.013038		1.455617		0.906628		42.988135		-5.343529		-11.407939		-46.465216		-23.077029		-2.303489		26.284000		37.906692		-8.086986		-11.215476		-44.624255		-20.236461		3.760171		13.861126		-31.455752		1.081336		0.076123		-7.910226		6.537286		0.063250		-1.512818		-33.060030		-6.768896		56.205407		126.140993		5.231852		-4.451844		-35.881202		-40.411204		-50.232219		-21.621733		74.777348		137.422255		-7.366072		-1.249661		-24.612187		
2.788485		1.711168		-6.185356		92.398649		-0.013540		1.446811		0.898181		42.214201		-5.364496		-11.647775		-45.004270		-23.262525		-2.334022		26.032766		37.123282		-7.934790		-11.607072		-42.612381		-20.522329		3.930718		13.871391		-31.309607		1.128698		0.264985		-8.515399		6.512439		-0.134224		-4.565645		-33.317834		-7.673961		56.640536		125.077849		4.571045		-4.489154		-35.790353		-43.474191		-49.632865		-22.716371		75.027212		137.308995		-7.710831		-1.376031		-24.615166		
2.792449		1.719053		-5.999096		92.468665		-0.013968		1.437802		0.889719		41.485143		-5.380778		-11.932507		-43.568269		-23.466721		-2.296380		25.795855		36.387910		-7.788293		-11.943534		-40.656022		-20.786093		4.051297		13.851564		-31.133858		1.159252		0.471848		-9.061498		6.533403		-0.354947		-7.646453		-33.494527		-8.586888		57.065563		124.055279		3.921236		-4.589462		-35.709953		-46.458459		-48.963955		-23.792925		75.249066		137.255282		-8.093695		-1.502962		-24.637424		
2.796414		1.688453		-5.675690		92.600753		-0.014130		1.428860		0.881274		40.605826		-5.402378		-12.111600		-42.151942		-23.613225		-2.180307		25.454402		35.489248		-7.622089		-12.342638		-38.671408		-20.983380		4.188909		13.769260		-31.192979		1.111127		0.575811		-9.153069		6.757644		-0.618603		-10.616322		-33.339347		-9.686974		57.406550		122.536943		3.077688		-4.746410		-35.461796		-49.633295		-48.304607		-25.113623		75.603080		137.328111		-8.514869		-1.789162		-24.580153		
2.800379		1.693758		-5.553131		92.651923		-0.014542		1.419446		0.872769		39.982628		-5.422344		-12.395713		-40.802748		-23.877348		-1.963452		25.230692		34.824487		-7.473047		-12.654398		-36.751805		-21.228519		4.283757		13.656060		-30.925632		1.160562		0.714815		-9.815138		6.662178		-0.735739		-13.575625		-33.446676		-10.381780		57.783455		121.767505		2.524750		-4.979271		-35.346445		-52.427350		-47.445735		-26.050669		75.664015		137.426782		-8.934355		-1.956071		-24.617646		
2.804343		1.652466		-5.405516		92.774604		-0.014830		1.409905		0.864280		39.340743		-5.482010		-12.594307		-39.496567		-24.084410		-1.685561		24.972439		34.138477		-7.267848		-12.976877		-34.836411		-21.449075		4.400601		13.482667		-30.722638		1.182676		0.702747		-10.235394		6.564376		-0.819217		-16.395887		-33.321294		-11.173699		58.090341		120.921124		1.925630		-5.229351		-35.162911		-55.272495		-46.561636		-27.034513		75.698495		137.634089		-9.390012		-2.273581		-24.639229		
2.808308		1.655018		-5.391619		92.905458		-0.015153		1.399931		0.855817		38.866976		-5.514335		-12.819756		-38.242451		-24.385132		-1.401346		24.828809		33.641484		-7.088284		-13.240455		-32.995925		-21.683788		4.487082		13.352165		-30.316115		1.301674		0.648295		-10.931377		6.182008		-0.834081		-19.177363		-33.204472		-11.902055		58.447838		120.535339		1.500991		-5.430340		-35.152464		-57.932524		-45.589728		-27.792701		75.578526		137.781357		-9.815475		-2.486700		-24.739098		
2.812273		1.598328		-5.343879		93.089531		-0.015289		1.389820		0.847390		38.377062		-5.617372		-13.026487		-37.059128		-24.636899		-1.047123		24.669467		33.121397		-6.858890		-13.485238		-31.181889		-21.908829		4.586796		13.184856		-29.964073		1.366555		0.479657		-11.501845		5.796413		-0.870105		-21.904536		-32.948197		-12.669952		58.858051		120.133435		1.104169		-5.609745		-35.067642		-60.510968		-44.613487		-28.559930		75.341067		138.044729		-10.216400		-2.838603		-24.811136		
2.816237		1.577850		-5.339815		93.234343		-0.015809		1.379449		0.839011		37.934949		-5.679417		-13.230881		-35.884000		-24.893198		-0.726244		24.545207		32.651838		-6.608643		-13.667558		-29.400947		-22.070414		4.655471		13.041389		-29.539089		1.490335		0.398045		-12.101394		5.409066		-0.932972		-24.603588		-32.781388		-13.337358		59.199333		119.905871		0.814533		-5.726877		-34.999382		-62.891592		-43.538760		-29.151679		75.157985		138.282594		-10.553035		-3.129315		-24.868342		
2.820202		1.549758		-5.272393		93.407039		-0.016081		1.368945		0.830658		37.446382		-5.759495		-13.483380		-34.771063		-25.177771		-0.362058		24.424703		32.158968		-6.380543		-13.779986		-27.718507		-22.206359		4.697988		12.885034		-29.169711		1.559421		0.303379		-12.790071		5.118771		-1.106102		-27.289457		-32.453464		-14.086980		59.589453		119.740900		0.555700		-5.804377		-34.894578		-65.229348		-42.522438		-29.783246		74.918464		138.597450		-10.853918		-3.438924		-24.880305		
2.824167		1.529595		-5.083850		93.605623		-0.016706		1.358516		0.822261		36.763464		-5.862212		-13.811327		-33.576960		-25.390912		0.036248		24.294438		31.527081		-6.115609		-13.787514		-26.051259		-22.261573		4.667777		12.681019		-28.923957		1.634903		0.339645		-13.476445		5.103860		-1.446662		-29.966616		-32.019662		-14.975786		59.858848		119.755206		0.392834		-5.818657		-34.630088		-67.406427		-41.601899		-30.316890		74.809050		139.121755		-11.016936		-3.775768		-24.715000		
2.828131		1.579352		-5.011172		93.691466		-0.017096		1.347688		0.813961		36.241401		-5.807434		-14.043625		-32.400905		-25.604816		0.264053		24.208586		31.043369		-5.983183		-13.754123		-24.467256		-22.237742		4.609515		12.571795		-28.560346		1.686850		0.389031		-14.053430		5.140238		-1.666533		-32.475774		-31.698813		-15.522400		60.050553		119.812909		0.247817		-5.902944		-34.523271		-69.520879		-40.549351		-30.756552		74.606723		139.377370		-11.191111		-3.855582		-24.652970		
2.832096		1.639243		-4.703572		93.820591		-0.017461		1.336986		0.805472		35.497618		-5.796182		-14.458139		-31.364605		-25.949946		0.467038		24.111411		30.378344		-5.884574		-13.631422		-23.054816		-22.286179		4.447167		12.488820		-28.381836		1.712438		0.523389		-15.226483		5.475696		-1.915184		-35.015856		-31.086615		-16.343294		60.225850		120.002601		-0.013398		-6.025377		-34.429298		-71.756386		-39.488153		-31.401203		74.726164		139.721167		-11.390511		-3.938165		-24.577765		
2.836061		1.706118		-4.499985		93.974895		-0.017884		1.326120		0.796990		34.728167		-5.741711		-14.835757		-30.093820		-26.066557		0.541649		24.008646		29.778789		-5.772727		-13.560560		-21.569840		-22.262947		4.227272		12.462953		-28.142262		1.787981		0.559269		-15.934086		5.734538		-2.019593		-37.326293		-30.559326		-16.933908		60.241384		120.333755		-0.190004		-6.150976		-34.282348		-73.714916		-38.464283		-31.760891		74.575091		140.129531		-11.343231		-3.964309		-24.487542		
2.840025		1.820836		-4.109146		94.153203		-0.018090		1.315332		0.788324		33.840479		-5.676183		-15.415952		-29.081074		-26.193114		0.567745		23.850243		29.024455		-5.755073		-13.465123		-20.197787		-22.363809		3.934303		12.462000		-28.070516		1.923637		0.588456		-16.978842		5.910182		-2.072678		-39.673479		-29.840352		-17.747029		60.430851		120.913185		-0.466703		-6.370300		-34.003185		-75.579565		-37.222038		-32.337001		74.500288		140.758383		-11.259839		-3.982153		-24.424787		
2.843990		1.927398		-3.924885		94.334501		-0.018247		1.304067		0.779655		33.153023		-5.595194		-15.967878		-28.042852		-26.191011		0.417059		23.671063		28.494233		-5.735609		-13.494279		-18.884557		-22.433987		3.646132		12.493332		-27.760336		2.082489		0.505128		-17.955168		5.882226		-2.004866		-41.869125		-29.176751		-18.395177		60.556326		121.405438		-0.711016		-6.510992		-33.755335		-77.233496		-35.979178		-32.685074		74.139735		141.262828		-11.130245		-4.046467		-24.487882		
